<svg width="79" height="70" viewBox="0 0 79 70" fill="none" xmlns="http://www.w3.org/2000/svg">
<path d="M15.9033 51.5938C17.1983 51.5938 18.2389 51.8434 19.0508 52.3115C19.8567 52.7763 20.4697 53.475 20.8877 54.4326L21.3037 55.3848L21.7881 54.4658C22.1196 53.8376 22.6868 53.29 23.5342 52.8398C24.3894 52.3855 25.2082 52.1689 26.001 52.1689C27.5051 52.169 28.7613 52.6855 29.8018 53.7246C30.8507 54.7722 31.5014 56.1341 31.7383 57.8379V57.8398C31.8718 58.7773 31.9414 60.1057 31.9414 61.835C31.9414 64.2824 31.8856 65.9653 31.7793 66.9062L31.7783 66.9131C31.7322 67.3766 31.5729 67.6977 31.332 67.9229L31.3311 67.9238C31.0889 68.151 30.7798 68.2744 30.3643 68.2744C29.9719 68.2743 29.7031 68.1611 29.5068 67.9717C29.3142 67.7857 29.1825 67.5059 29.1602 67.0693V67.0615L29.1592 67.0547L29.1416 66.7236C29.1265 66.3088 29.1191 65.6403 29.1191 64.708V62.0117C29.1191 60.6334 29.1055 59.7271 29.0752 59.3223C29.0141 58.1628 28.7018 57.1616 28.1084 56.3477C27.4886 55.4977 26.6328 55.0586 25.585 55.0586C24.6906 55.0587 23.8856 55.416 23.1846 56.0781V56.0791C22.4753 56.7507 22.0938 57.5541 22.0938 58.4746V58.4961L22.1768 60.4854L22.1777 60.5039L22.1797 60.5225C22.2604 61.2118 22.3018 61.885 22.3018 62.543C22.3017 64.2012 22.2049 65.6477 22.0176 66.8809C21.9498 67.2912 21.7933 67.5691 21.5791 67.7568C21.3666 67.9433 21.0824 68.0527 20.6836 68.0527C20.2914 68.0527 20.0224 67.9403 19.8262 67.751C19.6416 67.5728 19.5215 67.3034 19.5215 66.873C19.5215 65.9814 19.5354 65.4366 19.5605 65.2021L19.5615 65.1934L19.5625 65.1836L19.6436 64.0068C19.6737 63.7122 19.6885 63.1112 19.6885 62.2314V61.7314H19.6816C19.6724 60.5842 19.6326 59.5994 19.5586 58.7822H19.5576C19.4688 57.6544 19.1553 56.6875 18.5938 55.9053V55.9043C17.994 55.0708 17.1289 54.6582 16.0684 54.6582C15.0729 54.6583 14.2324 54.878 13.6553 55.4121L13.543 55.5234C13.0249 56.0448 12.6973 56.7105 12.5439 57.4941C12.3966 58.2471 12.3271 59.2423 12.3271 60.4629C12.3272 61.2756 12.3837 62.2581 12.4932 63.4082V63.4092L12.5762 64.8672L12.5771 64.8809C12.6025 65.1852 12.6182 65.6548 12.6182 66.2969C12.6182 66.7865 12.5142 67.0889 12.3496 67.3047L12.2764 67.3916C12.0739 67.6062 11.7697 67.7431 11.291 67.7432C10.8636 67.7432 10.5357 67.6259 10.2773 67.4141C10.0279 67.2095 9.8586 66.9168 9.79102 66.4941C9.57274 64.9353 9.46289 62.9409 9.46289 60.5078C9.46289 59.1173 9.47701 58.2531 9.50391 57.8936V57.8828C9.60856 55.8902 10.2512 54.3679 11.3887 53.2646C12.5272 52.1605 14.0167 51.5938 15.9033 51.5938Z" fill="#B09EF2" stroke="#B09EF2"/>
<path d="M22.3984 2.20117C27.5758 -0.42779 30.8359 0.49209 32.6309 1.62891C34.8472 3.03245 36.154 5.67222 36.0664 8.73438C35.95 12.7957 36.463 14.977 37.2412 16.1543C37.6414 16.7596 38.1098 17.0962 38.5781 17.2764C39.0327 17.4512 39.4615 17.467 39.7363 17.4785C41.6799 17.5598 43.4929 16.7099 45.2168 15.4561C46.9399 14.2028 48.6382 12.4969 50.3477 10.7822C52.8022 8.32011 55.2723 5.84674 58.1123 4.34473C61.5959 2.501 65.1304 2.44863 68.6641 4.18945C71.8199 5.74224 73.813 8.38015 74.7471 12.335C75.512 15.5717 75.5208 19.451 75.5283 23.6426C75.534 27.2361 75.5403 31.3144 76.0566 35.4512L76.167 36.2793C76.7076 40.1041 78.1579 42.6083 78.1924 42.667L78.1943 42.6709C78.8017 43.6787 78.4746 44.9858 77.4639 45.5938C77.121 45.8005 76.7446 45.897 76.3711 45.8975C75.6445 45.8967 74.9357 45.5251 74.5352 44.8604H74.5342C74.4643 44.744 72.6159 41.63 71.9443 36.876C71.2788 32.1737 71.2707 27.6625 71.2646 23.6504C71.2572 19.4726 71.2049 16.1079 70.6406 13.542C70.0699 10.947 68.9569 9.08763 66.7842 8.01758V8.0166C65.5774 7.42273 64.4316 7.16145 63.3076 7.20215C62.1855 7.24286 61.1162 7.58429 60.0586 8.15039C58.2276 9.1305 56.3775 10.8166 54.2852 12.8857L53.373 13.7949C51.4176 15.7564 49.3729 17.8053 47.0947 19.3389C44.8248 20.8669 42.3558 21.8594 39.5586 21.7412C36.3553 21.6055 33.9523 19.8286 32.7627 16.6758C31.9004 14.3895 31.7628 11.6467 31.7852 9.49512L31.8037 8.6123C31.8441 7.181 31.3586 5.87147 30.3496 5.23242C29.6507 4.78936 28.73 4.69213 27.7256 4.83691C26.7139 4.98282 25.5594 5.38144 24.3311 6.00488C16.678 9.8898 11.09 17.3935 7.6748 28.2031C6.3634 32.3543 5.63696 36.2387 5.23828 39.0938C5.03886 40.5219 4.92165 41.6947 4.85352 42.5156C4.81947 42.9259 4.79746 43.2485 4.78418 43.4717C4.77754 43.5833 4.77345 43.6701 4.77051 43.7305C4.76904 43.7605 4.76734 43.784 4.7666 43.8008C4.76623 43.8092 4.76681 43.8164 4.7666 43.8213C4.76651 43.8236 4.76568 43.8257 4.76562 43.8271V43.833C4.72403 45.0088 3.74132 45.9273 2.55957 45.8896C1.38362 45.8491 0.461971 44.8637 0.500977 43.6875C0.510962 43.3872 0.792014 35.8866 3.56348 27.0508C5.2063 21.8117 7.38758 17.1944 10.04 13.3213C13.4227 8.38405 17.581 4.64688 22.3984 2.20117Z" fill="#B09EF2" stroke="#B09EF2"/>
<path d="M19.34 39.3301C18.3333 38.6965 17.5282 37.8598 16.9278 36.82C16.3258 35.7802 16.0264 34.7238 16.0264 33.6523C16.0264 32.0602 16.3755 30.6472 17.0737 29.4117C17.772 28.1778 18.7305 27.2192 19.9495 26.536C21.1684 25.8543 22.5242 25.5127 24.0185 25.5127C25.9673 25.5127 27.5835 26.1146 28.8671 27.3155C30.1507 28.5178 30.7918 30.0769 30.7918 31.994C30.7918 33.4552 30.4186 34.8201 29.6707 36.0871C28.9228 37.3542 27.9326 38.37 26.6971 39.1329C25.4617 39.8974 24.1148 40.2781 22.6521 40.2781C21.4498 40.2781 20.3452 39.9606 19.3385 39.327V39.3301H19.34ZM20.6597 35.9021C21.3294 36.513 22.1375 36.8185 23.084 36.8185C24.2668 36.8185 25.242 36.4047 26.0109 35.577C26.7799 34.7494 27.1636 33.7441 27.1636 32.5613C27.1636 31.4583 26.8777 30.6005 26.3059 29.9896C25.734 29.3786 24.9169 29.0731 23.8515 29.0731C22.7078 29.0731 21.7237 29.5261 20.8945 30.4335C20.0668 31.3409 19.653 32.3853 19.653 33.5666C19.653 34.5131 19.9871 35.2911 20.6582 35.9021H20.6597Z" fill="#B09EF2" stroke="#B09EF2" stroke-linecap="round" stroke-linejoin="round"/>
<path d="M48.5056 27.8137C49.8689 26.3375 51.8177 25.5986 54.3488 25.5986C57.3585 25.5986 59.3268 27.3292 60.2553 30.7888C60.6495 32.2801 61.0212 33.3906 61.3734 34.122C61.7255 34.8533 62.2943 35.5426 63.0829 36.1896C63.4485 36.471 63.6306 36.8367 63.6306 37.2867C63.6306 37.7652 63.441 38.2016 63.0603 38.5944C62.6811 38.9886 62.2371 39.1843 61.7315 39.1843C61.253 39.1843 60.782 38.9811 60.3185 38.5718C59.855 38.164 59.3133 37.5666 58.6948 36.778C58.2734 37.9322 57.5195 38.8171 56.4375 39.4356C55.354 40.054 54.1095 40.364 52.704 40.364C51.607 40.364 50.5792 40.0691 49.6236 39.4777C48.6666 38.8878 47.9006 38.0993 47.3243 37.1151C46.7479 36.1309 46.459 35.0761 46.459 33.9504C46.459 31.3351 47.1407 29.2885 48.5056 27.8122V27.8137ZM52.999 36.6095C54.0674 36.6095 54.9673 36.2227 55.6986 35.4493C56.43 34.6758 56.7957 33.7398 56.7957 32.6443C56.7957 31.5487 56.5353 30.7316 56.0147 30.1131C55.494 29.4946 54.7416 29.1846 53.7574 29.1846C52.7733 29.1846 51.8719 29.5849 51.142 30.387C50.4107 31.1891 50.045 32.11 50.045 33.1499C50.045 35.4568 51.0292 36.6095 52.999 36.6095Z" fill="#B09EF2" stroke="#B09EF2" stroke-linecap="round" stroke-linejoin="round"/>
<path d="M19.1852 62.2305C19.1852 60.8762 19.1431 59.74 19.0603 58.8266C18.9775 57.7657 18.6856 56.8899 18.1875 56.1962C17.6894 55.5039 16.9821 55.1578 16.0687 55.1578C15.071 55.1578 14.3502 55.3941 13.9078 55.8651C13.4638 56.3075 13.1734 56.8823 13.035 57.5896C12.8965 58.2969 12.8273 59.2555 12.8273 60.4623C12.8273 61.2584 12.883 62.2305 12.9928 63.3802L13.0756 64.8384C13.1027 65.1634 13.1177 65.6495 13.1177 66.2966C13.1177 66.9437 12.9582 67.3951 12.6407 67.7337C12.3217 68.0723 11.8717 68.2423 11.2909 68.2423C10.7642 68.2423 10.3202 68.0949 9.96059 67.7999C9.60093 67.505 9.37822 67.0926 9.29545 66.5629C9.07274 64.9723 8.96289 62.9528 8.96289 60.5075C8.96289 59.123 8.97643 58.2382 9.00502 57.856C9.11487 55.7643 9.79506 54.1135 11.0411 52.9051C12.2871 51.6967 13.9078 51.0933 15.9032 51.0933C18.6179 51.0933 20.4327 52.1391 21.3461 54.2323C21.7344 53.4965 22.3845 52.884 23.2994 52.3979C24.2144 51.9119 25.1127 51.6681 26.0006 51.6681C27.6348 51.6681 29.0193 52.2354 30.1554 53.3701C31.2916 54.5047 31.9838 55.9719 32.2336 57.7687C32.372 58.7408 32.4413 60.0967 32.4413 61.8348C32.4413 64.2816 32.3856 65.9896 32.2757 66.9617C32.2201 67.5215 32.0199 67.9639 31.6738 68.2875C31.3277 68.6125 30.8913 68.7735 30.3646 68.7735C29.8665 68.7735 29.4647 68.6261 29.1592 68.3311C28.8537 68.0362 28.6882 67.6238 28.6611 67.0941C28.6325 66.7405 28.619 65.9444 28.619 64.7075V62.0108C28.619 60.6264 28.6055 59.7415 28.5769 59.3593C28.5212 58.2698 28.2308 57.3639 27.7041 56.6416C27.1774 55.9193 26.4716 55.5581 25.5853 55.5581C24.8374 55.5581 24.1512 55.853 23.5282 56.4414C22.9052 57.0313 22.5936 57.7085 22.5936 58.4745L22.6764 60.4639C22.7592 61.1711 22.8013 61.8633 22.8013 62.542C22.8013 64.2214 22.7035 65.6961 22.5109 66.9617C22.4281 67.4628 22.2265 67.8541 21.909 68.1325C21.5899 68.4124 21.1821 68.5523 20.684 68.5523C20.1859 68.5523 19.7841 68.4048 19.4786 68.1099C19.1732 67.815 19.0212 67.4026 19.0212 66.8729C19.0212 65.9881 19.0347 65.4147 19.0633 65.1484L19.1461 63.9551C19.1732 63.6902 19.1882 63.1154 19.1882 62.2305H19.1852Z" fill="#B09EF2" stroke="#B09EF2" stroke-linecap="round" stroke-linejoin="round"/>
<path d="M39.1154 67.7597C38.1087 67.1262 37.3036 66.2895 36.7032 65.2497C36.1012 64.2099 35.8018 63.1535 35.8018 62.082C35.8018 60.4899 36.1509 59.0769 36.8491 57.8414C37.5474 56.6074 38.5059 55.6489 39.7249 54.9657C40.9438 54.284 42.2996 53.9424 43.7939 53.9424C45.7427 53.9424 47.3589 54.5443 48.6425 55.7452C49.9261 56.9475 50.5672 58.5065 50.5672 60.4237C50.5672 61.8849 50.194 63.2498 49.4461 64.5168C48.6982 65.7839 47.708 66.7997 46.4725 67.5626C45.237 68.3271 43.8902 68.7078 42.4275 68.7078C41.2252 68.7078 40.1206 68.3903 39.1139 67.7567V67.7597H39.1154ZM40.4351 64.3317C41.1048 64.9427 41.9129 65.2482 42.8594 65.2482C44.0422 65.2482 45.0173 64.8344 45.7863 64.0067C46.5553 63.179 46.939 62.1738 46.939 60.991C46.939 59.888 46.6531 59.0302 46.0813 58.4193C45.5094 57.8083 44.6923 57.5028 43.6269 57.5028C42.4832 57.5028 41.499 57.9558 40.6699 58.8632C39.8422 59.7706 39.4284 60.815 39.4284 61.9962C39.4284 62.9428 39.7625 63.7208 40.4336 64.3317H40.4351Z" fill="#B09EF2" stroke="#B09EF2" stroke-linecap="round" stroke-linejoin="round"/>
<path d="M55.4899 56.1585C56.8533 54.6822 58.8021 53.9434 61.3332 53.9434C64.3429 53.9434 66.3112 55.6739 67.2397 59.1335C67.6339 60.6248 68.0056 61.7354 68.3577 62.4667C68.7099 63.1981 69.2787 63.8873 70.0672 64.5344C70.4329 64.8158 70.615 65.1814 70.615 65.6314C70.615 66.1099 70.4254 66.5463 70.0447 66.9391C69.6654 67.3333 69.2215 67.529 68.7159 67.529C68.2374 67.529 67.7664 67.3258 67.3029 66.9165C66.8394 66.5087 66.2976 65.9113 65.6791 65.1228C65.2578 66.277 64.5039 67.1618 63.4219 67.7803C62.3384 68.3988 61.0939 68.7088 59.6884 68.7088C58.5914 68.7088 57.5636 68.4138 56.608 67.8224C55.651 67.2325 54.885 66.444 54.3086 65.4598C53.7323 64.4757 53.4434 63.4208 53.4434 62.2952C53.4434 59.6798 54.1251 57.6332 55.4899 56.157V56.1585ZM59.9834 64.9542C61.0518 64.9542 61.9517 64.5675 62.683 63.794C63.4144 63.0205 63.78 62.0845 63.78 60.989C63.78 59.8935 63.5197 59.0763 62.999 58.4579C62.4784 57.8394 61.726 57.5294 60.7418 57.5294C59.7576 57.5294 58.8562 57.9297 58.1264 58.7317C57.395 59.5338 57.0294 60.4548 57.0294 61.4946C57.0294 63.8015 58.0135 64.9542 59.9834 64.9542Z" fill="#B09EF2" stroke="#B09EF2" stroke-linecap="round" stroke-linejoin="round"/>
</svg>
