<svg width="49" height="45" viewBox="0 0 49 45" fill="none" xmlns="http://www.w3.org/2000/svg">
<mask id="path-1-inside-1_728_165" fill="white">
<path d="M4.40367 44.0367C3.19266 44.0367 2.15596 43.6055 1.29358 42.7431C0.431193 41.8807 0 40.844 0 39.633V13.211C0 12 0.431193 10.9633 1.29358 10.1009C2.15596 9.23853 3.19266 8.80734 4.40367 8.80734H11.3395L15.4128 4.40367H28.6239V8.80734H17.3395L13.3211 13.211H4.40367V39.633H39.633V19.8165H44.0367V39.633C44.0367 40.844 43.6055 41.8807 42.7431 42.7431C41.8807 43.6055 40.844 44.0367 39.633 44.0367H4.40367ZM39.633 13.211V8.80734H35.2294V4.40367H39.633V0H44.0367V4.40367H48.4404V8.80734H44.0367V13.211H39.633ZM22.0183 36.3303C24.7706 36.3303 27.1101 35.367 29.0367 33.4404C30.9633 31.5138 31.9266 29.1743 31.9266 26.422C31.9266 23.6697 30.9633 21.3303 29.0367 19.4037C27.1101 17.4771 24.7706 16.5138 22.0183 16.5138C19.2661 16.5138 16.9266 17.4771 15 19.4037C13.0734 21.3303 12.1101 23.6697 12.1101 26.422C12.1101 29.1743 13.0734 31.5138 15 33.4404C16.9266 35.367 19.2661 36.3303 22.0183 36.3303ZM22.0183 31.9266C20.4771 31.9266 19.1743 31.3945 18.1101 30.3303C17.0459 29.2661 16.5138 27.9633 16.5138 26.422C16.5138 24.8807 17.0459 23.578 18.1101 22.5138C19.1743 21.4495 20.4771 20.9174 22.0183 20.9174C23.5596 20.9174 24.8624 21.4495 25.9266 22.5138C26.9908 23.578 27.5229 24.8807 27.5229 26.422C27.5229 27.9633 26.9908 29.2661 25.9266 30.3303C24.8624 31.3945 23.5596 31.9266 22.0183 31.9266Z"/>
</mask>
<path d="M4.40367 44.0367C3.19266 44.0367 2.15596 43.6055 1.29358 42.7431C0.431193 41.8807 0 40.844 0 39.633V13.211C0 12 0.431193 10.9633 1.29358 10.1009C2.15596 9.23853 3.19266 8.80734 4.40367 8.80734H11.3395L15.4128 4.40367H28.6239V8.80734H17.3395L13.3211 13.211H4.40367V39.633H39.633V19.8165H44.0367V39.633C44.0367 40.844 43.6055 41.8807 42.7431 42.7431C41.8807 43.6055 40.844 44.0367 39.633 44.0367H4.40367ZM39.633 13.211V8.80734H35.2294V4.40367H39.633V0H44.0367V4.40367H48.4404V8.80734H44.0367V13.211H39.633ZM22.0183 36.3303C24.7706 36.3303 27.1101 35.367 29.0367 33.4404C30.9633 31.5138 31.9266 29.1743 31.9266 26.422C31.9266 23.6697 30.9633 21.3303 29.0367 19.4037C27.1101 17.4771 24.7706 16.5138 22.0183 16.5138C19.2661 16.5138 16.9266 17.4771 15 19.4037C13.0734 21.3303 12.1101 23.6697 12.1101 26.422C12.1101 29.1743 13.0734 31.5138 15 33.4404C16.9266 35.367 19.2661 36.3303 22.0183 36.3303ZM22.0183 31.9266C20.4771 31.9266 19.1743 31.3945 18.1101 30.3303C17.0459 29.2661 16.5138 27.9633 16.5138 26.422C16.5138 24.8807 17.0459 23.578 18.1101 22.5138C19.1743 21.4495 20.4771 20.9174 22.0183 20.9174C23.5596 20.9174 24.8624 21.4495 25.9266 22.5138C26.9908 23.578 27.5229 24.8807 27.5229 26.422C27.5229 27.9633 26.9908 29.2661 25.9266 30.3303C24.8624 31.3945 23.5596 31.9266 22.0183 31.9266Z" fill="#1C1B1F"/>
<path d="M11.3394 8.80734V13.8073H13.5255L15.0099 12.2025L11.3394 8.80734ZM15.4128 4.40367V-0.59633H13.2268L11.7423 1.00846L15.4128 4.40367ZM28.6239 4.40367H33.6239V-0.59633H28.6239V4.40367ZM28.6239 8.80734V13.8073H33.6239V8.80734H28.6239ZM17.3395 8.80734V3.80734H15.1332L13.646 5.43709L17.3395 8.80734ZM13.3211 13.211V18.211H15.5274L17.0145 16.5813L13.3211 13.211ZM4.40367 13.211V8.21101H-0.59633V13.211H4.40367ZM4.40367 39.633H-0.59633V44.633H4.40367V39.633ZM39.633 39.633V44.633H44.633V39.633H39.633ZM39.633 19.8165V14.8165H34.633V19.8165H39.633ZM44.0367 19.8165H49.0367V14.8165H44.0367V19.8165ZM39.633 13.211H34.633V18.211H39.633V13.211ZM39.633 8.80734H44.633V3.80734H39.633V8.80734ZM35.2294 8.80734H30.2294V13.8073H35.2294V8.80734ZM35.2294 4.40367V-0.59633H30.2294V4.40367H35.2294ZM39.633 4.40367V9.40367H44.633V4.40367H39.633ZM39.633 0V-5H34.633V0H39.633ZM44.0367 0H49.0367V-5H44.0367V0ZM44.0367 4.40367H39.0367V9.40367H44.0367V4.40367ZM48.4404 4.40367H53.4404V-0.59633H48.4404V4.40367ZM48.4404 8.80734V13.8073H53.4404V8.80734H48.4404ZM44.0367 8.80734V3.80734H39.0367V8.80734H44.0367ZM44.0367 13.211V18.211H49.0367V13.211H44.0367ZM4.40367 44.0367V39.0367C4.39877 39.0367 4.42315 39.0364 4.4701 39.0454C4.51791 39.0546 4.57605 39.0709 4.63806 39.0967C4.77402 39.1533 4.83792 39.2164 4.82911 39.2076L1.29358 42.7431L-2.24196 46.2787C-0.449363 48.0712 1.85604 49.0367 4.40367 49.0367V44.0367ZM1.29358 42.7431L4.82911 39.2076C4.82031 39.1988 4.88344 39.2627 4.93999 39.3986C4.96578 39.4606 4.98214 39.5188 4.99131 39.5666C5.00032 39.6135 5 39.6379 5 39.633H0H-5C-5 42.1807 -4.03454 44.4861 -2.24196 46.2787L1.29358 42.7431ZM0 39.633H5V13.211H0H-5V39.633H0ZM0 13.211H5C5 13.2061 5.00032 13.2305 4.99131 13.2774C4.98214 13.3253 4.96578 13.3834 4.93999 13.4454C4.88344 13.5814 4.82031 13.6453 4.82911 13.6365L1.29358 10.1009L-2.24196 6.56538C-4.03454 8.35797 -5 10.6634 -5 13.211H0ZM1.29358 10.1009L4.82911 13.6365C4.83792 13.6276 4.77403 13.6908 4.63807 13.7473C4.57606 13.7731 4.51792 13.7895 4.4701 13.7986C4.42316 13.8077 4.39877 13.8073 4.40367 13.8073V8.80734V3.80734C1.85604 3.80734 -0.449369 4.7728 -2.24196 6.56538L1.29358 10.1009ZM4.40367 8.80734V13.8073H11.3394V8.80734V3.80734H4.40367V8.80734ZM11.3394 8.80734L15.0099 12.2025L19.0833 7.79888L15.4128 4.40367L11.7423 1.00846L7.66895 5.41213L11.3394 8.80734ZM15.4128 4.40367V9.40367H28.6239V4.40367V-0.59633H15.4128V4.40367ZM28.6239 4.40367H23.6239V8.80734H28.6239H33.6239V4.40367H28.6239ZM28.6239 8.80734V3.80734H17.3395V8.80734V13.8073H28.6239V8.80734ZM17.3395 8.80734L13.646 5.43709L9.62768 9.84076L13.3211 13.211L17.0145 16.5813L21.0329 12.1776L17.3395 8.80734ZM13.3211 13.211V8.21101H4.40367V13.211V18.211H13.3211V13.211ZM4.40367 13.211H-0.59633V39.633H4.40367H9.40367V13.211H4.40367ZM4.40367 39.633V44.633H39.633V39.633V34.633H4.40367V39.633ZM39.633 39.633H44.633V19.8165H39.633H34.633V39.633H39.633ZM39.633 19.8165V24.8165H44.0367V19.8165V14.8165H39.633V19.8165ZM44.0367 19.8165H39.0367V39.633H44.0367H49.0367V19.8165H44.0367ZM44.0367 39.633H39.0367C39.0367 39.6379 39.0364 39.6135 39.0454 39.5666C39.0546 39.5188 39.0709 39.4606 39.0967 39.3986C39.1533 39.2627 39.2164 39.1988 39.2076 39.2076L42.7431 42.7431L46.2787 46.2787C48.0713 44.4861 49.0367 42.1807 49.0367 39.633H44.0367ZM42.7431 42.7431L39.2076 39.2076C39.1988 39.2164 39.2627 39.1533 39.3986 39.0967C39.4606 39.0709 39.5188 39.0546 39.5666 39.0454C39.6135 39.0364 39.6379 39.0367 39.633 39.0367V44.0367V49.0367C42.1807 49.0367 44.4861 48.0713 46.2787 46.2787L42.7431 42.7431ZM39.633 44.0367V39.0367H4.40367V44.0367V49.0367H39.633V44.0367ZM39.633 13.211H44.633V8.80734H39.633H34.633V13.211H39.633ZM39.633 8.80734V3.80734H35.2294V8.80734V13.8073H39.633V8.80734ZM35.2294 8.80734H40.2294V4.40367H35.2294H30.2294V8.80734H35.2294ZM35.2294 4.40367V9.40367H39.633V4.40367V-0.59633H35.2294V4.40367ZM39.633 4.40367H44.633V0H39.633H34.633V4.40367H39.633ZM39.633 0V5H44.0367V0V-5H39.633V0ZM44.0367 0H39.0367V4.40367H44.0367H49.0367V0H44.0367ZM44.0367 4.40367V9.40367H48.4404V4.40367V-0.59633H44.0367V4.40367ZM48.4404 4.40367H43.4404V8.80734H48.4404H53.4404V4.40367H48.4404ZM48.4404 8.80734V3.80734H44.0367V8.80734V13.8073H48.4404V8.80734ZM44.0367 8.80734H39.0367V13.211H44.0367H49.0367V8.80734H44.0367ZM44.0367 13.211V8.21101H39.633V13.211V18.211H44.0367V13.211ZM22.0183 36.3303V41.3303C26.0816 41.3303 29.6973 39.8508 32.5722 36.9759L29.0367 33.4404L25.5012 29.9048C24.5229 30.8831 23.4597 31.3303 22.0183 31.3303V36.3303ZM29.0367 33.4404L32.5722 36.9759C35.4472 34.101 36.9266 30.4853 36.9266 26.422H31.9266H26.9266C26.9266 27.8634 26.4794 28.9266 25.5012 29.9048L29.0367 33.4404ZM31.9266 26.422H36.9266C36.9266 22.3588 35.4472 18.7431 32.5722 15.8681L29.0367 19.4037L25.5012 22.9392C26.4794 23.9175 26.9266 24.9807 26.9266 26.422H31.9266ZM29.0367 19.4037L32.5722 15.8681C29.6973 12.9932 26.0816 11.5138 22.0183 11.5138V16.5138V21.5138C23.4597 21.5138 24.5229 21.9609 25.5012 22.9392L29.0367 19.4037ZM22.0183 16.5138V11.5138C17.9551 11.5138 14.3394 12.9932 11.4645 15.8681L15 19.4037L18.5355 22.9392C19.5138 21.9609 20.577 21.5138 22.0183 21.5138V16.5138ZM15 19.4037L11.4645 15.8681C8.58953 18.7431 7.11009 22.3588 7.11009 26.422H12.1101H17.1101C17.1101 24.9807 17.5573 23.9175 18.5355 22.9392L15 19.4037ZM12.1101 26.422H7.11009C7.11009 30.4853 8.58953 34.101 11.4645 36.9759L15 33.4404L18.5355 29.9048C17.5573 28.9266 17.1101 27.8634 17.1101 26.422H12.1101ZM15 33.4404L11.4645 36.9759C14.3394 39.8508 17.9551 41.3303 22.0183 41.3303V36.3303V31.3303C20.577 31.3303 19.5138 30.8831 18.5355 29.9048L15 33.4404ZM22.0183 31.9266V26.9266C21.9215 26.9266 21.8599 26.9183 21.8266 26.9121C21.7943 26.9061 21.7798 26.9003 21.7759 26.8988C21.7723 26.8973 21.7644 26.8939 21.7487 26.8833C21.7323 26.8723 21.6974 26.8465 21.6456 26.7947L18.1101 30.3303L14.5746 33.8658C16.6015 35.8927 19.1868 36.9266 22.0183 36.9266V31.9266ZM18.1101 30.3303L21.6456 26.7947C21.5939 26.743 21.5681 26.708 21.5571 26.6917C21.5465 26.676 21.5431 26.6681 21.5416 26.6644C21.5401 26.6606 21.5343 26.646 21.5283 26.6137C21.522 26.5805 21.5138 26.5188 21.5138 26.422H16.5138H11.5138C11.5138 29.2536 12.5477 31.8389 14.5746 33.8658L18.1101 30.3303ZM16.5138 26.422H21.5138C21.5138 26.3252 21.522 26.2636 21.5283 26.2303C21.5343 26.198 21.5401 26.1834 21.5416 26.1796C21.5431 26.176 21.5465 26.168 21.5571 26.1524C21.5681 26.136 21.5939 26.1011 21.6456 26.0493L18.1101 22.5138L14.5746 18.9782C12.5477 21.0051 11.5138 23.5904 11.5138 26.422H16.5138ZM18.1101 22.5138L21.6456 26.0493C21.6974 25.9975 21.7324 25.9717 21.7487 25.9607C21.7644 25.9502 21.7723 25.9468 21.776 25.9453C21.7798 25.9437 21.7943 25.938 21.8266 25.9319C21.8599 25.9257 21.9215 25.9174 22.0183 25.9174V20.9174V15.9174C19.1868 15.9174 16.6015 16.9513 14.5746 18.9782L18.1101 22.5138ZM22.0183 20.9174V25.9174C22.1152 25.9174 22.1768 25.9257 22.2101 25.9319C22.2424 25.938 22.2569 25.9437 22.2607 25.9453C22.2644 25.9468 22.2723 25.9502 22.288 25.9607C22.3043 25.9718 22.3393 25.9975 22.3911 26.0493L25.9266 22.5138L29.4621 18.9782C27.4352 16.9513 24.8499 15.9174 22.0183 15.9174V20.9174ZM25.9266 22.5138L22.3911 26.0493C22.4428 26.1011 22.4686 26.136 22.4796 26.1524C22.4902 26.168 22.4936 26.176 22.4951 26.1796C22.4966 26.1834 22.5024 26.198 22.5084 26.2303C22.5147 26.2636 22.5229 26.3252 22.5229 26.422H27.5229H32.5229C32.5229 23.5904 31.489 21.0051 29.4621 18.9782L25.9266 22.5138ZM27.5229 26.422H22.5229C22.5229 26.5188 22.5147 26.5805 22.5084 26.6137C22.5024 26.646 22.4966 26.6606 22.4951 26.6644C22.4936 26.6681 22.4902 26.676 22.4796 26.6917C22.4686 26.708 22.4428 26.743 22.3911 26.7947L25.9266 30.3303L29.4621 33.8658C31.489 31.8389 32.5229 29.2536 32.5229 26.422H27.5229ZM25.9266 30.3303L22.3911 26.7947C22.3393 26.8465 22.3044 26.8723 22.288 26.8833C22.2723 26.8939 22.2644 26.8973 22.2608 26.8988C22.2569 26.9003 22.2424 26.9061 22.2101 26.9121C22.1768 26.9183 22.1152 26.9266 22.0183 26.9266V31.9266V36.9266C24.8499 36.9266 27.4352 35.8927 29.4621 33.8658L25.9266 30.3303Z" fill="#323577" mask="url(#path-1-inside-1_728_165)"/>
</svg>
