<svg width="61" height="61" viewBox="0 0 61 61" fill="none" xmlns="http://www.w3.org/2000/svg">
<path d="M30.3465 30.5H30.3199M18.5265 30.5H18.4998M42.1665 30.5H42.14" stroke="#323577" stroke-width="5" stroke-linecap="round" stroke-linejoin="round"/>
<path d="M2.5 30.5C2.5 45.964 15.036 58.5 30.5 58.5C35.2986 58.5 39.8155 57.2928 43.7632 55.1656C49.2695 52.1985 52.9748 54.957 56.2426 55.4518C56.7382 55.527 57.2319 55.3469 57.5864 54.9926C58.1245 54.4544 58.2269 53.6224 57.9297 52.9218C56.6471 49.899 55.4695 44.1705 57.0752 39.3421C57.9995 36.5627 58.5 33.5897 58.5 30.5C58.5 15.036 45.964 2.5 30.5 2.5C15.036 2.5 2.5 15.036 2.5 30.5Z" stroke="#323577" stroke-width="5" stroke-linecap="round" stroke-linejoin="round"/>
</svg>
