<svg width="20" height="20" viewBox="0 0 20 20" fill="none" xmlns="http://www.w3.org/2000/svg">
<path d="M19.6137 2.34438C20.2022 1.73728 20.1084 0.83557 19.4001 0.331147C18.6919 -0.173276 17.6399 -0.0929259 17.0514 0.514168L10 7.76804L2.94859 0.514168C2.3601 -0.0929259 1.30812 -0.173276 0.599854 0.331147C-0.108412 0.83557 -0.202153 1.73728 0.386332 2.34438L7.82833 10L0.386332 17.6556C-0.202153 18.2627 -0.108412 19.1644 0.599854 19.6689C1.30812 20.1733 2.3601 20.0929 2.94859 19.4858L10 12.232L17.0514 19.4858C17.6399 20.0929 18.6919 20.1733 19.4001 19.6689C20.1084 19.1644 20.2022 18.2627 19.6137 17.6556L12.1717 10L19.6137 2.34438Z" fill="#323577"/>
</svg>
