<svg width="14" height="11" viewBox="0 0 14 11" fill="none" xmlns="http://www.w3.org/2000/svg">
<path d="M5.99479 8.41205L3.66176 10.7692C3.35798 11.0761 2.86464 11.0761 2.56086 10.7692L0.227835 8.41205C-0.075945 8.10513 -0.075945 7.6067 0.227835 7.29978C0.531615 6.99286 1.02495 6.99286 1.32873 7.29978L2.33485 8.31629V0.785714C2.33485 0.351116 2.68238 0 3.11253 0C3.54268 0 3.89021 0.351116 3.89021 0.785714V8.31629L4.89632 7.29978C5.2001 6.99286 5.69344 6.99286 5.99722 7.29978C6.301 7.6067 6.301 8.10513 5.99722 8.41205H5.99479ZM7.77859 11C7.34844 11 7.00091 10.6489 7.00091 10.2143C7.00091 9.77969 7.34844 9.42857 7.77859 9.42857H8.55626C8.98642 9.42857 9.33394 9.77969 9.33394 10.2143C9.33394 10.6489 8.98642 11 8.55626 11H7.77859ZM7.77859 7.85714C7.34844 7.85714 7.00091 7.50603 7.00091 7.07143C7.00091 6.63683 7.34844 6.28571 7.77859 6.28571H10.1116C10.5418 6.28571 10.8893 6.63683 10.8893 7.07143C10.8893 7.50603 10.5418 7.85714 10.1116 7.85714H7.77859ZM7.77859 4.71429C7.34844 4.71429 7.00091 4.36317 7.00091 3.92857C7.00091 3.49397 7.34844 3.14286 7.77859 3.14286H11.667C12.0971 3.14286 12.4446 3.49397 12.4446 3.92857C12.4446 4.36317 12.0971 4.71429 11.667 4.71429H7.77859ZM7.77859 1.57143C7.34844 1.57143 7.00091 1.22031 7.00091 0.785714C7.00091 0.351116 7.34844 0 7.77859 0H13.2223C13.6525 0 14 0.351116 14 0.785714C14 1.22031 13.6525 1.57143 13.2223 1.57143H7.77859Z" fill="black"/>
</svg>
