<svg width="44" height="50" viewBox="0 0 44 50" fill="none" xmlns="http://www.w3.org/2000/svg">
<path d="M21.7 0.00972272C20.4116 0.00972272 19.375 1.05007 19.375 2.34321V3.28633C11.4894 4.41418 5.425 11.2299 5.425 19.4555V20.8653C5.425 24.5308 4.45625 28.1283 2.61562 31.2979L0.494062 34.9343C0.174375 35.4982 0 36.1302 0 36.7816C0 38.8137 1.63719 40.4569 3.66188 40.4569H39.7381C41.7628 40.4569 43.4 38.8137 43.4 36.7816C43.4 36.1302 43.2256 35.4885 42.9059 34.9343L40.7844 31.2882C38.9437 28.1185 37.975 24.5211 37.975 20.8556V19.4457C37.975 11.2202 31.9106 4.40446 24.025 3.27661V2.33349C24.025 1.04035 22.9884 0 21.7 0V0.00972272ZM38.0137 35.7899H5.37656L6.62625 33.6411C8.88344 29.7617 10.075 25.3475 10.075 20.8653V19.4555C10.075 13.0092 15.2772 7.78802 21.7 7.78802C28.1228 7.78802 33.325 13.0092 33.325 19.4555V20.8653C33.325 25.3572 34.5166 29.7617 36.7641 33.6411L38.0137 35.7899ZM15.1222 45.1238C16.0813 47.8463 18.6678 49.7908 21.7 49.7908C24.7322 49.7908 27.3187 47.8463 28.2778 45.1238H15.1222Z" fill="#C5BAFF"/>
</svg>
