<svg width="36" height="35" viewBox="0 0 36 35" fill="none" xmlns="http://www.w3.org/2000/svg">
<path d="M3.96187 31.1111H6.7847L26.1483 12.1042L23.3255 9.33333L3.96187 28.3403V31.1111ZM0 35V26.7361L26.1483 1.11806C26.5445 0.761574 26.982 0.486111 27.4607 0.291667C27.9394 0.0972222 28.4429 0 28.9712 0C29.4994 0 30.0112 0.0972222 30.5064 0.291667C31.0016 0.486111 31.4308 0.777778 31.794 1.16667L34.5178 3.88889C34.914 4.24537 35.2029 4.66667 35.3845 5.15278C35.566 5.63889 35.6568 6.125 35.6568 6.61111C35.6568 7.12963 35.566 7.62384 35.3845 8.09375C35.2029 8.56366 34.914 8.99306 34.5178 9.38194L8.41897 35H0ZM24.7122 10.7431L23.3255 9.33333L26.1483 12.1042L24.7122 10.7431Z" fill="#323577"/>
</svg>
