<svg width="14" height="11" viewBox="0 0 14 11" fill="none" xmlns="http://www.w3.org/2000/svg">
<path d="M1.55534 2.48381C1.55531 1.11103 2.77296 -8.84135e-05 4.27745 -0.000136378C5.78193 -0.000184343 6.99964 1.11086 6.99968 2.48364C6.99971 3.85642 5.78206 4.96754 4.27758 4.96759C2.77309 4.96763 1.55538 3.85659 1.55534 2.48381ZM1.71026e-05 9.93545C-3.95778e-05 7.77981 1.91515 6.03217 4.2776 6.0321C6.64006 6.03202 8.55534 7.77954 8.5554 9.93517L8.5554 10.0682C8.55541 10.5828 8.09849 10.9997 7.53461 10.9997L1.02086 10.9999C0.45698 10.9999 3.41301e-05 10.583 2.06014e-05 10.0685L1.71026e-05 9.93545ZM10.4996 1.06418C11.7877 1.06414 12.8329 2.01773 12.8329 3.19313C12.8329 4.36853 11.7878 5.32218 10.4997 5.32223C9.21151 5.32227 8.16637 4.36867 8.16634 3.19328C8.16631 2.01788 9.2114 1.06422 10.4996 1.06418ZM10.4997 6.38674C12.432 6.38668 13.9997 7.81706 13.9997 9.58016L13.9997 10.0769C13.9997 10.587 13.5477 10.9995 12.9887 10.9995L9.46929 10.9997C9.6297 10.7224 9.72205 10.4053 9.72204 10.0682L9.72204 9.93514C9.72201 8.793 9.29907 7.74181 8.59177 6.90353C9.14106 6.57751 9.79729 6.38676 10.4997 6.38674Z" fill="black"/>
</svg>
