<svg width="40" height="40" viewBox="0 0 40 40" fill="none" xmlns="http://www.w3.org/2000/svg">
<path d="M14.4443 0.0126953C18.4781 0.0126953 21.8917 1.4093 24.6855 4.20312C27.4794 6.997 28.876 10.4106 28.876 14.4443C28.876 16.0726 28.6176 17.6088 28.0996 19.0518C27.5816 20.4948 26.8781 21.771 25.9902 22.8809L25.9834 22.8896L39.9824 36.8887L36.8887 39.9824L22.8896 25.9834L22.8809 25.9902C21.771 26.8781 20.4948 27.5816 19.0518 28.0996C17.6088 28.6176 16.0726 28.876 14.4443 28.876C10.4106 28.876 6.997 27.4794 4.20312 24.6855C1.4093 21.8917 0.0126953 18.4781 0.0126953 14.4443C0.0127204 10.4106 1.40925 6.997 4.20312 4.20312C6.997 1.40925 10.4106 0.0127204 14.4443 0.0126953ZM14.4443 4.43164C11.6633 4.43167 9.29933 5.40575 7.35254 7.35254C5.40575 9.29933 4.43167 11.6633 4.43164 14.4443C4.43164 17.2253 5.4058 19.5893 7.35254 21.5361C9.29933 23.4829 11.6633 24.457 14.4443 24.457C17.2254 24.457 19.5893 23.4829 21.5361 21.5361C23.4829 19.5893 24.457 17.2254 24.457 14.4443C24.457 11.6633 23.4829 9.29933 21.5361 7.35254C19.5893 5.4058 17.2253 4.43164 14.4443 4.43164Z" fill="#323577" stroke="#323577" stroke-width="0.025"/>
</svg>
