<svg width="14" height="12" viewBox="0 0 14 12" fill="none" xmlns="http://www.w3.org/2000/svg">
<path d="M9.60349 0.200937L13.4595 4.45458C14.1802 5.24984 14.1802 6.52339 13.4595 7.31865L9.39014 11.7987C9.14817 12.0647 8.75268 12.0676 8.50811 11.8044C8.26353 11.5412 8.26093 11.111 8.5029 10.845L12.5722 6.36207C12.8116 6.09887 12.8116 5.67152 12.5722 5.40833L8.71365 1.15751C8.47168 0.891482 8.47428 0.461307 8.71886 0.198107C8.96343 -0.0650924 9.35892 -0.0622623 9.60089 0.203767L9.60349 0.200937ZM0 5.58945V1.81127C0 0.812239 0.746736 0 1.6652 0H5.13869C5.58101 0 6.00511 0.189617 6.31733 0.529229L10.064 4.60458C10.7145 5.3121 10.7145 6.45829 10.064 7.16582L6.59053 10.944C5.94006 11.6515 4.88631 11.6515 4.23584 10.944L0.489151 6.86866C0.176927 6.52905 0.00260183 6.06774 0.00260183 5.58662L0 5.58945ZM3.74669 3.16971C3.74669 2.66879 3.37462 2.26408 2.91409 2.26408C2.45356 2.26408 2.08149 2.66879 2.08149 3.16971C2.08149 3.67064 2.45356 4.07535 2.91409 4.07535C3.37462 4.07535 3.74669 3.67064 3.74669 3.16971Z" fill="black"/>
</svg>
